# xmcd
#
# Track frame offsets: 
#        150
#        12110
#        28712
#        42561
#        56783
#        71069
#        90821
#        105061
#        117347
#        129715
#        142564
#        154912
#        170561
#        185664
#        200006
#        213163
#        225164
#        239105
#
# Disc length: 3436 seconds
#
# Revision: 2
# Processed by: cddbd v1.5.2PL0 Copyright (c) Steve Scherf et al.
# Submitted via: ExactAudioCopyFreeDBPlugin 1.0
#
DISCID=f10d6a12
DTITLE=Fard and Snaga - Talion II: La Rabia [CD1]
DYEAR=2014
DGENRE=Rap
TTITLE0=Contraband
TTITLE1=Rapmilitär
TTITLE2=Astaghfirullah
TTITLE3=Kalashnikov
TTITLE4=Du hast Recht 2
TTITLE5=Stumme Zeugen
TTITLE6=La Rabia
TTITLE7=Das ist Talion
TTITLE8=Tag and Nacht
TTITLE9=Mitternacht
TTITLE10=Was soll das Heissen?
TTITLE11=Made in Germany
TTITLE12=Carpe Diem
TTITLE13=Gesetz der Rache
TTITLE14=Sin City
TTITLE15=Wir gegen den Rest (Bonus Track)
TTITLE16=Ruhrpott Bulldog (Bonus Track)
TTITLE17=Ein Leben (Bonus Track)
EXTD=
EXTT0=
EXTT1=
EXTT2=
EXTT3=
EXTT4=
EXTT5=
EXTT6=
EXTT7=
EXTT8=
EXTT9=
EXTT10=
EXTT11=
EXTT12=
EXTT13=
EXTT14=
EXTT15=
EXTT16=
EXTT17=
PLAYORDER=
